<?xml version="1.0" standalone="no"?>
<!DOCTYPE svg PUBLIC "-//W3C//DTD SVG 20010904//EN"
 "http://www.w3.org/TR/2001/REC-SVG-20010904/DTD/svg10.dtd">
<svg version="1.0" xmlns="http://www.w3.org/2000/svg"
 width="901.000000pt" height="1280.000000pt" viewBox="0 0 901.000000 1280.000000"
 preserveAspectRatio="xMidYMid meet">
<metadata>
Created by potrace 1.15, written by Peter Selinger 2001-2017
</metadata>
<g transform="translate(0.000000,1280.000000) scale(0.100000,-0.100000)"
fill="#000000" stroke="none">
<path d="M4239 12789 c-249 -17 -517 -73 -699 -144 -197 -77 -275 -123 -690
-407 -234 -159 -379 -243 -785 -451 -203 -104 -409 -214 -458 -244 -271 -168
-413 -343 -489 -603 -19 -65 -113 -604 -143 -820 -44 -322 -57 -633 -35 -875
21 -228 80 -573 101 -586 6 -3 54 -9 107 -13 54 -4 111 -9 129 -12 l31 -6 1
-183 c2 -593 137 -1158 406 -1695 263 -526 630 -963 1110 -1321 71 -53 149
-117 173 -141 l42 -44 -57 -18 c-230 -69 -457 -189 -693 -364 -138 -103 -418
-379 -543 -537 -723 -908 -1168 -2266 -1243 -3787 -6 -117 -4 -141 9 -162 25
-38 244 -180 381 -246 329 -161 608 -170 851 -28 98 57 253 217 327 337 31 51
59 98 61 104 2 7 46 -10 114 -46 197 -102 430 -177 728 -236 467 -92 962 -126
1705 -116 893 12 1209 39 1605 136 146 36 315 92 315 105 0 7 31 19 73 29 167
41 579 190 623 226 13 11 23 -4 94 -136 116 -214 246 -361 380 -428 280 -140
636 -58 1101 255 72 48 120 88 128 105 29 63 -25 774 -95 1268 -230 1619 -836
3085 -1504 3639 -91 76 -147 114 -238 164 l-71 38 49 74 c26 41 96 124 154
184 508 516 864 1190 1006 1901 22 110 22 110 64 137 156 102 282 276 342 473
25 80 28 105 28 235 0 130 -3 155 -28 235 -62 205 -185 370 -357 482 l-56 37
-32 130 c-83 333 -255 753 -412 1005 l-27 44 75 83 c205 224 332 449 369 654
18 99 17 165 -1 258 -99 488 -756 869 -1915 1107 -796 163 -1600 241 -2111
204z"/>
</g>
</svg>
