<?xml version="1.0" standalone="no"?>
<!DOCTYPE svg PUBLIC "-//W3C//DTD SVG 20010904//EN"
 "http://www.w3.org/TR/2001/REC-SVG-20010904/DTD/svg10.dtd">
<svg version="1.0" xmlns="http://www.w3.org/2000/svg"
 width="1280.000000pt" height="1250.000000pt" viewBox="0 0 1280.000000 1250.000000"
 preserveAspectRatio="xMidYMid meet">
<metadata>
Created by potrace 1.15, written by Peter Selinger 2001-2017
</metadata>
<g transform="translate(0.000000,1250.000000) scale(0.100000,-0.100000)"
fill="#000000" stroke="none">
<path d="M6265 12494 c-257 -38 -489 -130 -720 -285 -147 -99 -260 -193 -510
-423 -264 -243 -340 -326 -450 -495 -45 -69 -120 -178 -167 -242 -47 -64 -102
-147 -123 -185 -21 -38 -53 -87 -71 -109 -94 -118 -199 -306 -232 -420 -36
-120 -43 -190 -52 -520 -5 -182 -18 -402 -29 -510 -25 -230 -26 -363 -5 -502
8 -58 13 -107 11 -109 -2 -2 -29 7 -60 20 -129 57 -275 73 -352 37 -207 -96
-202 -480 15 -1143 70 -217 208 -569 251 -645 102 -178 258 -255 424 -208 33
9 66 17 74 18 9 1 25 -27 44 -78 127 -345 112 -871 -39 -1359 -65 -207 -207
-566 -225 -566 -4 0 -9 8 -12 18 -3 15 -5 15 -11 -3 -39 -109 -92 -180 -252
-337 -392 -386 -1491 -1160 -2719 -1916 -395 -243 -420 -260 -504 -344 -296
-292 -468 -732 -533 -1363 -14 -138 -18 -748 -5 -797 l7 -28 6390 0 c3515 0
6390 3 6390 8 0 4 -9 63 -20 132 -83 509 -319 1029 -696 1533 -165 220 -301
373 -559 625 -213 210 -315 294 -485 404 -537 345 -1624 840 -2920 1330 -167
63 -195 76 -193 93 1 11 23 191 49 400 l47 380 116 120 c343 354 603 850 776
1478 37 135 48 161 72 180 58 45 147 134 190 192 91 121 143 265 143 397 0 59
6 84 41 166 62 145 117 304 147 422 34 139 38 365 8 446 -54 145 -165 219
-346 233 l-85 6 -7 165 c-7 185 -16 294 -58 720 -22 217 -29 339 -27 460 2
186 -3 211 -79 407 -66 172 -109 246 -196 340 -43 46 -78 88 -78 92 0 5 -22
39 -50 76 -27 37 -50 75 -50 85 0 9 -18 89 -40 177 -21 89 -47 208 -56 265
-17 109 -50 209 -85 261 -12 18 -54 64 -93 102 -39 39 -99 107 -134 152 -76
100 -161 160 -323 227 -63 26 -172 75 -244 108 -394 183 -552 237 -850 288
-114 20 -382 34 -450 24z"/>
</g>
</svg>
