<?xml version="1.0" standalone="no"?>
<!DOCTYPE svg PUBLIC "-//W3C//DTD SVG 20010904//EN"
 "http://www.w3.org/TR/2001/REC-SVG-20010904/DTD/svg10.dtd">
<svg version="1.0" xmlns="http://www.w3.org/2000/svg"
 width="987.000000pt" height="1280.000000pt" viewBox="0 0 987.000000 1280.000000"
 preserveAspectRatio="xMidYMid meet">
<metadata>
Created by potrace 1.15, written by Peter Selinger 2001-2017
</metadata>
<g transform="translate(0.000000,1280.000000) scale(0.100000,-0.100000)"
fill="#000000" stroke="none">
<path d="M4721 12785 c-662 -76 -1263 -372 -1732 -852 -401 -410 -648 -905
-735 -1468 -26 -167 -26 -560 -1 -725 44 -282 123 -556 221 -762 l34 -73 1
168 1 167 51 123 c140 338 328 615 591 873 214 211 297 283 331 289 18 2 86
12 151 20 237 32 434 97 715 236 l154 76 226 -74 c606 -198 933 -268 1373
-295 314 -19 590 5 908 78 226 52 285 60 304 44 56 -46 -18 -73 -368 -134 -76
-14 -142 -28 -146 -33 -4 -4 55 -96 132 -203 178 -247 272 -399 359 -575 105
-214 159 -402 186 -650 l8 -70 34 80 c116 274 188 587 211 917 14 208 -4 430
-57 683 -170 818 -718 1516 -1488 1895 -283 139 -507 209 -820 256 -145 22
-491 26 -644 9z"/>
<path d="M4350 10695 c-251 -128 -390 -174 -657 -216 -226 -35 -190 -14 -433
-257 -344 -346 -480 -540 -630 -898 l-42 -99 5 -270 c4 -237 8 -288 31 -415
163 -895 581 -1651 1171 -2122 437 -349 1002 -504 1485 -408 296 59 459 121
705 268 320 192 649 544 895 958 220 369 395 839 479 1284 63 336 51 596 -40
873 -40 121 -159 363 -249 507 -65 103 -295 431 -353 503 l-23 29 -99 -13
c-152 -20 -586 -17 -760 5 -320 40 -563 99 -1012 245 -170 56 -314 101 -319
100 -5 0 -74 -34 -154 -74z"/>
<path d="M3752 6008 c-45 -156 -82 -290 -82 -298 0 -24 565 -568 1119 -1078
l165 -152 70 67 c39 37 240 232 446 433 207 201 459 447 562 547 l187 181 -14
59 c-8 32 -32 117 -53 188 -21 72 -47 163 -57 203 -11 39 -23 72 -27 72 -5 0
-52 -25 -104 -56 -212 -125 -435 -207 -679 -250 -146 -26 -528 -14 -700 22
-172 36 -389 130 -617 267 -70 42 -129 77 -131 77 -1 0 -40 -127 -85 -282z"/>
<path d="M6253 5619 c-161 -144 -1253 -1206 -1253 -1219 0 -29 415 -598 731
-1002 15 -20 34 9 449 668 664 1055 790 1257 790 1272 0 11 -630 331 -652 332
-4 0 -34 -23 -65 -51z"/>
<path d="M3415 5599 c-77 -33 -232 -104 -345 -158 -172 -81 -205 -100 -202
-117 2 -10 150 -237 329 -504 179 -267 468 -700 642 -962 174 -263 319 -476
323 -475 24 8 642 802 742 954 l27 41 -123 119 c-137 133 -603 575 -981 931
-136 127 -253 232 -260 232 -6 0 -75 -27 -152 -61z"/>
<path d="M2685 5183 c-489 -110 -694 -162 -920 -234 -463 -148 -737 -298 -966
-530 -231 -234 -355 -487 -424 -868 -14 -75 -30 -149 -35 -165 -6 -16 -35
-225 -65 -465 -30 -240 -79 -618 -110 -841 -108 -792 -141 -1171 -161 -1852
l-7 -228 4938 0 4938 0 -7 168 c-21 523 -101 1209 -257 2182 -33 206 -82 517
-109 690 -100 632 -157 859 -272 1082 -238 465 -700 722 -1783 992 -349 87
-424 102 -443 90 -9 -6 -41 -46 -70 -90 -77 -114 -1053 -1678 -1092 -1749 -41
-74 -68 -105 -91 -105 -45 0 -103 73 -515 645 -119 165 -224 308 -234 319 -11
11 -25 16 -37 12 -11 -4 -58 -57 -104 -119 -46 -61 -129 -169 -184 -238 -55
-69 -167 -212 -249 -319 -82 -106 -175 -220 -206 -254 l-57 -60 -62 84 c-35
47 -332 489 -662 983 -503 753 -603 897 -622 896 -12 0 -71 -12 -132 -26z
m1986 -1900 c-11 -21 -20 -35 -21 -31 0 12 33 78 38 74 2 -2 -6 -21 -17 -43z
m-40 -90 c-11 -21 -20 -35 -21 -31 0 12 33 78 38 74 2 -2 -6 -21 -17 -43z
m-52 -453 c0 -8 -20 27 -44 79 -25 51 -45 96 -44 100 0 12 88 -164 88 -179z
m10 -323 c-6 -54 -14 -96 -16 -93 -3 2 0 50 6 106 6 55 12 135 13 178 l2 77 4
-85 c2 -47 -2 -129 -9 -183z"/>
</g>
</svg>
