<?xml version="1.0" standalone="no"?>
<!DOCTYPE svg PUBLIC "-//W3C//DTD SVG 20010904//EN"
 "http://www.w3.org/TR/2001/REC-SVG-20010904/DTD/svg10.dtd">
<svg version="1.0" xmlns="http://www.w3.org/2000/svg"
 width="778.000000pt" height="1280.000000pt" viewBox="0 0 778.000000 1280.000000"
 preserveAspectRatio="xMidYMid meet">
<metadata>
Created by potrace 1.15, written by Peter Selinger 2001-2017
</metadata>
<g transform="translate(0.000000,1280.000000) scale(0.100000,-0.100000)"
fill="#000000" stroke="none">
<path d="M3320 12794 c-392 -36 -649 -93 -1110 -249 -548 -185 -951 -390
-1242 -632 -389 -323 -778 -855 -903 -1236 -103 -317 -82 -753 66 -1352 98
-396 279 -931 449 -1330 38 -90 42 -105 36 -155 -69 -622 -89 -943 -89 -1425
0 -792 79 -1290 263 -1660 176 -354 510 -639 848 -724 90 -23 495 -81 767
-111 105 -11 200 -23 213 -25 41 -10 24 -33 -35 -50 -560 -156 -1040 -392
-1433 -703 -184 -146 -264 -241 -352 -417 -251 -500 -314 -1393 -177 -2515 11
-91 22 -173 25 -182 5 -17 43 -18 612 -19 2103 -3 6326 1 6331 6 10 10 19 142
32 472 23 578 -16 1150 -107 1588 -68 326 -164 581 -290 771 -71 108 -127 169
-238 258 -348 280 -804 517 -1293 673 -84 26 -153 50 -153 53 0 3 102 13 228
23 356 27 592 67 817 142 232 76 388 166 520 299 62 62 91 102 127 171 97 191
150 419 178 765 14 172 14 661 0 895 -26 441 -97 1050 -178 1525 -15 91 -16
120 -7 215 10 98 19 129 77 280 322 833 495 1573 475 2030 -13 287 -127 697
-280 1002 -161 320 -374 541 -612 635 -66 26 -98 32 -182 36 -122 5 -201 -7
-341 -54 -57 -19 -105 -34 -106 -32 -2 2 -13 41 -25 88 -48 180 -141 330 -259
420 -130 98 -372 198 -637 264 -297 73 -992 198 -1320 237 -162 19 -582 33
-695 23z"/>
</g>
</svg>
